<?xml version="1.0" encoding="UTF-8"?>
<svg id="Layer_1" data-name="Layer 1" xmlns="http://www.w3.org/2000/svg" viewBox="0 0 547.7 70.7">
  <defs>
    <style>
      .cls-1 {
        fill: #c8102e;
      }
    </style>
  </defs>
  <polyline points="190.9 26 212.2 53.4 196.9 53.4 177.4 27.8 177.4 53.4 164.5 53.4 164.5 1.2 177.4 1.2 177.4 24.5 196.2 1.2 211.4 1.2 190.9 26"/>
  <polyline points="230.8 42.6 255.6 42.6 255.6 53.4 217.9 53.4 217.9 1.2 254.4 1.2 254.4 11.9 230.8 11.9 230.8 21.5 252.1 21.5 252.1 31.9 230.8 31.9 230.8 42.6"/>
  <polyline points="260.8 1.2 260.8 11.9 276.7 11.9 276.7 53.4 289.5 53.4 289.5 11.9 305.3 11.9 305.3 1.2 260.8 1.2"/>
  <polyline points="260.8 1.2 260.8 11.9 276.7 11.9 276.7 53.4 289.5 53.4 289.5 11.9 305.3 11.9 305.3 1.2 260.8 1.2"/>
  <path d="M30.6,33.3l15.7,20.1h-14.8L12.8,28.2v25.2H0V1.2H23.5c11.2,0,19,6.9,19,16.9,0,7.1-4.5,13.5-11.9,15.2m-.8-15c0-3.9-3.1-6.6-7.5-6.6H12.9v13.2h9.4c4.5,0,7.5-2.7,7.5-6.6Z"/>
  <path class="cls-1" d="M77.2,11.5c9.4,0,16.8,7.2,16.8,17.1,0,7.8-3.9,12.5-9.1,16l7.2,9.6c8.9-6.1,14.5-14.5,14.5-25.6C106.6,12.2,93.6,.3,77.2,.3s-29.4,11.9-29.4,28.3c0,11.1,5.6,19.5,14.5,25.6l7.2-9.6c-5.2-3.5-9.1-8.2-9.1-16,.1-9.9,7.4-17.1,16.8-17.1"/>
  <path d="M151.7,38.9l6.7,9.1c-4.9,4.3-10.9,6.2-18.4,6.2-14.7,0-27.4-10.7-27.4-27.1S125.2,.2,140,.2c7.1,0,13.5,1.8,18.3,5.7l-7,9.5c-2.8-2.2-6.2-3.9-11.3-3.9-8.1,0-14.6,6.4-14.6,15.9s6.5,15.6,14.8,15.6c5,0,8.5-1.8,11.5-4.1"/>
</svg>